<svg xmlns="http://www.w3.org/2000/svg" xmlns:xlink="http://www.w3.org/1999/xlink" xmlns:inkscape="http://www.inkscape.org/namespaces/inkscape" version="1.1" width="595.276" height="841.89" viewBox="0 0 595.276 841.89">
<defs>
<path id="font_1_6" d="M.07499695 .6738281V.2770996C.07499695 .068237308 .1789856-.0107421879 .31698609-.0107421879 .46299745-.0107421879 .57199099 .07423401 .57199099 .2810974V.6738281H.48399354V.2751007C.48399354 .12620545 .41999818 .060256959 .31999208 .060256959 .22999573 .060256959 .16299439 .12420654 .16299439 .2751007V.6738281H.07499695Z"/>
<path id="font_1_14" d="M.07299805 0H.16099549V.29107667C.16099549 .30607606 .16299439 .32107545 .16699219 .33207704 .18199158 .38108827 .22698975 .42210389 .2849884 .42210389 .36799623 .42210389 .39698792 .35708619 .39698792 .279068V0H.4850006V.28907777C.4850006 .45510865 .3809967 .4951172 .31399537 .4951172 .23399353 .4951172 .17799378 .45010377 .1539917 .4040985H.1519928L.14698792 .484375H.068984989C.07199097 .44433595 .07299805 .40330506 .07299805 .35327149V0Z"/>
<path id="font_1_11" d="M.16099549 0V.484375H.07299805V0H.16099549M.116989139 .6748047C.084991458 .6748047 .06199646 .6508026 .06199646 .61979678 .06199646 .589798 .083999637 .5657959 .114990238 .5657959 .1499939 .5657959 .17199707 .589798 .17098999 .61979678 .17098999 .6508026 .1499939 .6748047 .116989139 .6748047Z"/>
<path id="font_1_20" d="M.0129852299 .484375 .19699097 0H.2809906L.47099305 .484375H.3789978L.2849884 .2121582C.2689972 .1680603 .25498963 .1280365 .24398804 .08799744H.24099732C.23098755 .1280365 .21798706 .1680603 .20199585 .21211243L.10699463 .484375H.0129852299Z"/>
<path id="font_1_10" d="M.46199037 .22605896C.46299745 .23506165 .46499635 .24905396 .46499635 .26705934 .46499635 .3560791 .4229889 .4951172 .2649994 .4951172 .12399292 .4951172 .037994386 .38009645 .037994386 .23405457 .037994386 .0881958 .1269989-.009765625 .27598573-.009765625 .35299684-.009765625 .4059906 .006225586 .43699647 .020233155L.42199708 .08320618C.3889923 .06921387 .35099793 .05822754 .28799439 .05822754 .19999695 .05822754 .12399292 .107177738 .12199402 .22605896H.46199037M.12298584 .2890625C.12998963 .3500824 .16899109 .43211366 .2579956 .43211366 .35699464 .43211366 .3809967 .3450775 .37998963 .2890625H.12298584Z"/>
<path id="font_1_17" d="M.07299805 0H.1599884V.2580719C.1599884 .2730713 .1619873 .28707887 .1639862 .29907228 .17599488 .36509706 .21998596 .41210938 .28199769 .41210938 .2939911 .41210938 .30299378 .4111023 .31199647 .4091034V.4921875C.3039856 .4941101 .29699708 .4951172 .2869873 .4951172 .22799683 .4951172 .1749878 .45411683 .15299988 .38909913H.14898682L.1459961 .484375H.068984989C.07199097 .43933106 .07299805 .3902893 .07299805 .33325196V0Z"/>
<path id="font_1_18" d="M.038986207 .023223877C.07299805 .0032196046 .12199402-.009765625 .1749878-.009765625 .2899933-.009765625 .35598756 .050231935 .35598756 .13520813 .35598756 .20718384 .31298829 .24916077 .22898865 .28115846 .1659851 .30514527 .13699341 .32315064 .13699341 .36312867 .13699341 .39912416 .1659851 .42910768 .21798706 .42910768 .2630005 .42910768 .2979889 .41311646 .31698609 .40112306L.33898927 .46510316C.31199647 .48110963 .2689972 .4951172 .21998596 .4951172 .115997318 .4951172 .052993776 .43110658 .052993776 .35313417 .052993776 .29515077 .09399414 .24716187 .18099976 .21617127 .24598694 .19218445 .2709961 .16918946 .2709961 .12719727 .2709961 .08721924 .24099732 .055221559 .1769867 .055221559 .1329956 .055221559 .08699036 .07322693 .06098938 .09020996L.038986207 .023223877Z"/>
<path id="font_1_9" d="M.40299989 .70996096V.42111207H.40098573C.3789978 .46011354 .32899476 .4951172 .25498963 .4951172 .13699341 .4951172 .036987306 .39611817 .037994386 .23518372 .037994386 .08824158 .12799073-.0107421879 .24499512-.0107421879 .32398988-.0107421879 .3829956 .03024292 .4099884 .084243778H.4119873L.41600038 0H.49499513C.49198915 .03300476 .4909973 .08201599 .4909973 .12503052V.70996096H.40299989M.40299989 .2030487C.40299989 .18904114 .4019928 .17704773 .39898683 .16503906 .3829956 .099227908 .32899476 .060256959 .269989 .060256959 .1749878 .060256959 .1269989 .1412201 .1269989 .23918152 .1269989 .34614564 .18099976 .42611695 .27198792 .42611695 .33799745 .42611695 .38598634 .38012696 .39898683 .32414247 .4019928 .31315614 .40299989 .29815675 .40299989 .2871704V.2030487Z"/>
<path id="font_1_7" d="M.42099 0C.4149933 .03300476 .41299439 .074020389 .41299439 .11602783V.2970581C.41299439 .39408876 .3769989 .4951172 .22898865 .4951172 .16799927 .4951172 .10998535 .47810365 .069992069 .45210267L.08999634 .39408876C.12399292 .41610719 .17098999 .43011476 .21598816 .43011476 .31498719 .43011476 .32598878 .358078 .32598878 .31806947V.3080597C.13899231 .30906678 .034988405 .24505615 .034988405 .1280365 .034988405 .058242799 .084991458-.0107421879 .18299866-.0107421879 .2519989-.0107421879 .3039856 .023254395 .33099366 .06124878H.33399964L.34098817 0H.42099M.32798768 .16304016C.32798768 .15415955 .32598878 .14416504 .32299806 .13517761 .30899049 .09420776 .2689972 .054244996 .20599365 .054244996 .16099549 .054244996 .12298584 .081222537 .12298584 .13816834 .12298584 .23207093 .23199463 .24906922 .32798768 .24707031V.16304016Z"/>
<path id="font_1_1" d=""/>
<path id="font_1_5" d="M.1579895 0V.2879181C.1579895 .39987184 .1559906 .48085023 .15098572 .56581118L.1539917 .56681826C.18798828 .49383546 .23298645 .41687013 .27999879 .34188844L.49398805 0H.58200076V.6738281H.5V.39187623C.5 .28694154 .5019989 .20497132 .5099945 .114990238L.5079956 .11399841C.47599793 .18296814 .43699647 .25395204 .3869934 .33293153L.17098999 .6738281H.07598877V0H.1579895Z"/>
<path id="font_1_8" d="M.40299989 .08421326C.37799073 .07322693 .34498597 .06022644 .29499818 .06022644 .19898987 .06022644 .1269989 .12921143 .1269989 .24118042 .1269989 .3421631 .18699646 .4241333 .2979889 .4241333 .34599305 .4241333 .3789978 .4131317 .3999939 .4011383L.41999818 .46913148C.3959961 .48114015 .34999085 .49414063 .2979889 .49414063 .13999939 .49414063 .037994386 .38613893 .037994386 .23718262 .037994386 .08921814 .1329956-.009765625 .2789917-.009765625 .34399415-.009765625 .394989 .006225586 .41799928 .018234253L.40299989 .08421326Z"/>
<path id="font_1_15" d="M.27799989 .4951172C.14399719 .4951172 .037994386 .40011598 .037994386 .2381897 .037994386 .085235599 .13899231-.0107421879 .269989-.0107421879 .3869934-.0107421879 .5109863 .06724548 .5109863 .2461853 .5109863 .39411927 .4169922 .4951172 .27799989 .4951172M.27598573 .42910768C.37998963 .42910768 .42099 .32514955 .42099 .24317932 .42099 .13421631 .35798646 .055252077 .27398683 .055252077 .18798828 .055252077 .1269989 .13522339 .1269989 .24118042 .1269989 .33314515 .17199707 .42910768 .27598573 .42910768Z"/>
<path id="font_1_12" d="M.07299805 0H.16099549V.70996096H.07299805V0Z"/>
<path id="font_1_3" d="M.4249878 .3876953H.16299439V.6008148H.43998719V.6738281H.07598877V0H.45498658V.07299805H.16299439V.3156891H.4249878V.3876953Z"/>
<path id="font_1_21" d="M.015991211 .484375 .17999268 .24717713 .0079956059 0H.10499573L.1749878 .109069827C.19299317 .13809204 .20999146 .16412354 .22599793 .19314575H.22799683C.24499512 .16412354 .26098634 .13710022 .27999879 .109069827L.35099793 0H.45098878L.2809906 .2501831 .44599916 .484375H.35099793L.2829895 .38128663C.2669983 .3552704 .25099183 .33024598 .23498535 .30122376H.23199463C.21598816 .32824708 .20098877 .35327149 .18299866 .3802948L.11399841 .484375H.015991211Z"/>
<path id="font_1_16" d="M.07299805-.19824219H.1599884V.06524658H.1619873C.19099427 .01725769 .24699402-.0107421879 .31098939-.0107421879 .4249878-.0107421879 .5309906 .07524109 .5309906 .24917603 .5309906 .39611817 .44299317 .4951172 .32598878 .4951172 .24699402 .4951172 .18998719 .46011354 .1539917 .40112306H.1519928L.147995 .484375H.068984989C.070999149 .4383545 .07299805 .38833619 .07299805 .32632447V-.19824219M.1599884 .28030396C.1599884 .29231263 .16299439 .3053131 .1659851 .3163147 .18299866 .38212586 .23899842 .42510987 .29899598 .42510987 .3919983 .42510987 .44299317 .34214784 .44299317 .24517823 .44299317 .13421631 .3889923 .058242799 .29599 .058242799 .23298645 .058242799 .17999268 .100234989 .1639862 .1612091 .1619873 .1722107 .1599884 .1842041 .1599884 .19718933V.28030396Z"/>
<path id="font_1_13" d="M.07299805 0H.15899658V.29206849C.15899658 .30706788 .16099549 .32208253 .1659851 .335083 .17999268 .37908937 .21998596 .42311097 .2749939 .42311097 .34199525 .42311097 .37599183 .36709596 .37599183 .29006959V0H.46199037V.29907228C.46199037 .31507875 .46499635 .3310852 .46899415 .3430786 .48399354 .38609315 .522995 .42311097 .57299807 .42311097 .6439972 .42311097 .6779938 .36709596 .6779938 .2740631V0H.7639923V.2850647C.7639923 .45310975 .6689911 .4951172 .6049957 .4951172 .5589905 .4951172 .5269928 .48310853 .49798585 .46110536 .47799684 .44610597 .45899964 .42510987 .44400025 .3981018H.44198609C.42099 .45510865 .37098695 .4951172 .30499269 .4951172 .22499085 .4951172 .17999268 .45210267 .15299988 .4060974H.1499939L.1459961 .484375H.068984989C.07199097 .44433595 .07299805 .40330506 .07299805 .35327149V0Z"/>
<path id="font_1_19" d="M.09298706 .6003723V.484375H.017990113V.41737367H.09298706V.15325928C.09298706 .09623718 .101989749 .053222658 .1269989 .02722168 .147995 .0032196046 .18099976-.009765625 .22200012-.009765625 .2559967-.009765625 .2829895-.004776001 .2999878 .0022277833L.29599 .068222049C.2849884 .06523132 .2679901 .06222534 .24499512 .06222534 .19599915 .06222534 .1789856 .09623718 .1789856 .15626526V.41737367H.30499269V.484375H.1789856V.6233673L.09298706 .6003723Z"/>
<path id="font_1_4" d="M.58898928 .35417176H.36698915V.2841797H.5039978V.0831604C.48399354 .073150638 .44499208 .06515503 .3880005 .06515503 .23098755 .06515503 .12799073 .16616822 .12799073 .33717347 .12799073 .5058594 .23498535 .60765078 .39898683 .60765078 .46699525 .60765078 .5119934 .5946808 .5479889 .5787201L.56900027 .6503906C.5399933 .6636505 .47898866 .68066409 .40098573 .68066409 .1749878 .68066409 .036987306 .5338135 .035995485 .33317567 .035995485 .22816468 .07199097 .13816834 .12998963 .08215332 .19599915 .01914978 .27999879-.0068359377 .38198854-.0068359377 .47299195-.0068359377 .5499878 .016159058 .58898928 .030151368V.35417176Z"/>
<path id="font_1_2" d="M.5289917 .09118652C.49398805 .07421875 .43998719 .06323242 .3869934 .06323242 .22299195 .06323242 .12799073 .1690979 .12799073 .33389283 .12799073 .51068118 .23298645 .611557 .3909912 .611557 .44699098 .611557 .49398805 .59957888 .5269928 .5836029L.5479889 .65527346C.5249939 .66656497 .47200013 .6845703 .3880005 .6845703 .1789856 .6845703 .035995485 .5416565 .035995485 .3309021 .035995485 .11016846 .1789856-.009765625 .36898805-.009765625 .45098878-.009765625 .5149994 .006225586 .5469971 .022232056L.5289917 .09118652Z"/>
<clipPath id="clip_2">
<path transform="matrix(1,0,0,-1,0,841.89)" d="M0 841.89H595.276V0H0Z"/>
</clipPath>
<path id="font_3_5" d="M.4013672 .1875C.35728456 .1875 .32063294 .2002716 .28907777 .22660828 .2574005 .2536316 .2421875 .28442384 .2421875 .32089234V.7871094H.048828126V.31419374C.048828126 .22593689 .08190918 .1493988 .14710999 .086883548 .21232605 .02468872 .29837037-.0068359377 .40190126-.0068359377 .5044098-.0068359377 .59007266 .02470398 .6555939 .086868289 .7208252 .14941406 .75390627 .22592163 .75390627 .31419374V.7871094H.5605469V.32089234C.5605469 .24412537 .48109437 .1875 .4013672 .1875Z"/>
<path id="font_3_4" d="M.048828126 .7890625V0H.24699402V.41323854L.7067108 0H.75V.7890625H.5512848V.37483216L.09046936 .7890625H.048828126Z"/>
<path id="font_3_3" d="M.048828126-.0009765625H.5917969V.19042969H.250412V.29785157H.5126953V.4897461H.250412V.59716799H.5917969V.7890625H.048828126V-.0009765625Z"/>
<path id="font_3_6" d="M.25585938 .3940277 .019714356 .0005645752 .2406311-.000030517579 .38209535 .21755982 .5240631 0H.7450714L.5077362 .39401246 .7451172 .7871094H.52407839L.38209535 .57040408 .2406311 .7871094H.019638062L.25585938 .3940277Z"/>
<path id="font_3_2" d="M.48008729 .7939453H.45666505C.33493043 .7939453 .22923279 .754364 .14202881 .67626956 .060775758 .59783938 .019714356 .5028839 .019714356 .3935852 .019714356 .28398133 .060775758 .18914795 .14208985 .111328128 .22865296 .034439088 .33428956-.004562378 .45663453-.0048828127 .5185547-.0048828127 .57647708 .005783081 .63012698 .027252198 .68292239 .049209596 .72743228 .0789032 .7651367 .11627197L.77734377 .12835694 .6391144 .2653656 .6261749 .25328065C.5792084 .20941162 .52375796 .18797302 .45718385 .18797302 .39094544 .18797302 .33584596 .20762635 .28923036 .247818 .24223328 .28833009 .21929932 .33599855 .21929932 .39308167 .21929932 .44950868 .24221802 .49723817 .2893219 .5384064 .3355713 .5788574 .39060975 .59861758 .45718385 .59861758 .5226288 .59861758 .5779877 .57722476 .6257477 .53323367L.63868716 .5213165 .77700808 .65841677 .7644806 .6705017C.697876 .73472598 .6008911 .7858429 .47943116 .79145815L.48008729 .7939453Z"/>
<path id="font_3_1" d="M.422287 .38284303 .47262574 .2763672H.3712616L.422287 .38284303M.22789002 0 .28625489 .119628909H.55747988L.6158447 0H.82470706L.44459535 .7861328H.3991394L.01953125 0H.22789002Z"/>
</defs>
<g inkscape:groupmode="layer" inkscape:label="Capa 1">
<use data-text="U" xlink:href="#font_1_6" transform="matrix(37.6629,0,0,-33.9679,23.3462,507.19084)" fill="#3e3c3c"/>
<use data-text="n" xlink:href="#font_1_14" transform="matrix(37.6629,0,0,-33.9679,47.714097,507.19084)" fill="#3e3c3c"/>
<use data-text="i" xlink:href="#font_1_11" transform="matrix(37.6629,0,0,-33.9679,68.617008,507.19084)" fill="#3e3c3c"/>
<use data-text="v" xlink:href="#font_1_20" transform="matrix(37.6629,0,0,-33.9679,77.43012,507.19084)" fill="#3e3c3c"/>
<use data-text="e" xlink:href="#font_1_10" transform="matrix(37.6629,0,0,-33.9679,95.16934,507.19084)" fill="#3e3c3c"/>
<use data-text="r" xlink:href="#font_1_17" transform="matrix(37.6629,0,0,-33.9679,114.03845,507.19084)" fill="#3e3c3c"/>
<use data-text="s" xlink:href="#font_1_18" transform="matrix(37.6629,0,0,-33.9679,126.35422,507.19084)" fill="#3e3c3c"/>
<use data-text="i" xlink:href="#font_1_11" transform="matrix(37.6629,0,0,-33.9679,141.26873,507.19084)" fill="#3e3c3c"/>
<use data-text="d" xlink:href="#font_1_9" transform="matrix(37.6629,0,0,-33.9679,150.08185,507.19084)" fill="#3e3c3c"/>
<use data-text="a" xlink:href="#font_1_7" transform="matrix(37.6629,0,0,-33.9679,171.32373,507.19084)" fill="#3e3c3c"/>
<use data-text="d" xlink:href="#font_1_9" transform="matrix(37.6629,0,0,-33.9679,189.47725,507.19084)" fill="#3e3c3c"/>
<use data-text=" " xlink:href="#font_1_1" transform="matrix(37.6629,0,0,-33.9679,210.71912,507.19084)" fill="#3e3c3c"/>
<use data-text="N" xlink:href="#font_1_5" transform="matrix(37.6629,0,0,-33.9679,218.70365,507.19084)" fill="#3e3c3c"/>
<use data-text="a" xlink:href="#font_1_7" transform="matrix(37.6629,0,0,-33.9679,243.48584,507.19084)" fill="#3e3c3c"/>
<use data-text="c" xlink:href="#font_1_8" transform="matrix(37.6629,0,0,-33.9679,261.63935,507.19084)" fill="#3e3c3c"/>
<use data-text="i" xlink:href="#font_1_11" transform="matrix(37.6629,0,0,-33.9679,278.51234,507.19084)" fill="#3e3c3c"/>
<use data-text="o" xlink:href="#font_1_15" transform="matrix(37.6629,0,0,-33.9679,287.32545,507.19084)" fill="#3e3c3c"/>
<use data-text="n" xlink:href="#font_1_14" transform="matrix(37.6629,0,0,-33.9679,308.00239,507.19084)" fill="#3e3c3c"/>
<use data-text="a" xlink:href="#font_1_7" transform="matrix(37.6629,0,0,-33.9679,328.90528,507.19084)" fill="#3e3c3c"/>
<use data-text="l" xlink:href="#font_1_12" transform="matrix(37.6629,0,0,-33.9679,347.05879,507.19084)" fill="#3e3c3c"/>
<use data-text=" " xlink:href="#font_1_1" transform="matrix(37.6629,0,0,-33.9679,355.94725,507.19084)" fill="#3e3c3c"/>
<use data-text="E" xlink:href="#font_1_3" transform="matrix(37.6629,0,0,-33.9679,363.93177,507.19084)" fill="#3e3c3c"/>
<use data-text="x" xlink:href="#font_1_21" transform="matrix(37.6629,0,0,-33.9679,382.4619,507.19084)" fill="#3e3c3c"/>
<use data-text="p" xlink:href="#font_1_16" transform="matrix(37.6629,0,0,-33.9679,399.89985,507.19084)" fill="#3e3c3c"/>
<use data-text="e" xlink:href="#font_1_10" transform="matrix(37.6629,0,0,-33.9679,421.33003,507.19084)" fill="#3e3c3c"/>
<use data-text="r" xlink:href="#font_1_17" transform="matrix(37.6629,0,0,-33.9679,440.19914,507.19084)" fill="#3e3c3c"/>
<use data-text="i" xlink:href="#font_1_11" transform="matrix(37.6629,0,0,-33.9679,452.66557,507.19084)" fill="#3e3c3c"/>
<use data-text="m" xlink:href="#font_1_13" transform="matrix(37.6629,0,0,-33.9679,461.47868,507.19084)" fill="#3e3c3c"/>
<use data-text="e" xlink:href="#font_1_10" transform="matrix(37.6629,0,0,-33.9679,492.88954,507.19084)" fill="#3e3c3c"/>
<use data-text="n" xlink:href="#font_1_14" transform="matrix(37.6629,0,0,-33.9679,511.75865,507.19084)" fill="#3e3c3c"/>
<use data-text="t" xlink:href="#font_1_19" transform="matrix(37.6629,0,0,-33.9679,532.5109,507.19084)" fill="#3e3c3c"/>
<use data-text="a" xlink:href="#font_1_7" transform="matrix(37.6629,0,0,-33.9679,544.97738,507.19084)" fill="#3e3c3c"/>
<use data-text="l" xlink:href="#font_1_12" transform="matrix(37.6629,0,0,-33.9679,563.13088,507.19084)" fill="#3e3c3c"/>
<use data-text="d" xlink:href="#font_1_9" transform="matrix(37.663,0,0,-33.9325,149.2139,540.7025)" fill="#3e3c3c"/>
<use data-text="e" xlink:href="#font_1_10" transform="matrix(37.663,0,0,-33.9325,170.45583,540.7025)" fill="#3e3c3c"/>
<use data-text=" " xlink:href="#font_1_1" transform="matrix(37.663,0,0,-33.9325,189.32498,540.7025)" fill="#3e3c3c"/>
<use data-text="l" xlink:href="#font_1_12" transform="matrix(37.663,0,0,-33.9325,197.30954,540.7025)" fill="#3e3c3c"/>
<use data-text="a" xlink:href="#font_1_7" transform="matrix(37.663,0,0,-33.9325,206.19802,540.7025)" fill="#3e3c3c"/>
<use data-text="G" xlink:href="#font_1_4" transform="matrix(37.0232,0,0,-34.4319,234.4541,541.0755)" fill="#243355"/>
<use data-text="r" xlink:href="#font_1_17" transform="matrix(37.0232,0,0,-34.4319,259.29667,541.0755)" fill="#243355"/>
<use data-text="a" xlink:href="#font_1_7" transform="matrix(37.0232,0,0,-34.4319,272.1437,541.0755)" fill="#243355"/>
<use data-text="n" xlink:href="#font_1_14" transform="matrix(37.0232,0,0,-34.4319,290.91447,541.0755)" fill="#243355"/>
<use data-text=" " xlink:href="#font_1_1" transform="matrix(37.0232,0,0,-34.4319,312.3879,541.0755)" fill="#243355"/>
<use data-text="C" xlink:href="#font_1_2" transform="matrix(37.0232,0,0,-34.4319,321.1624,541.0755)" fill="#243355"/>
<use data-text="a" xlink:href="#font_1_7" transform="matrix(37.0232,0,0,-34.4319,343.3023,541.0755)" fill="#243355"/>
<use data-text="r" xlink:href="#font_1_17" transform="matrix(37.0232,0,0,-34.4319,362.07307,541.0755)" fill="#243355"/>
<use data-text="a" xlink:href="#font_1_7" transform="matrix(37.0232,0,0,-34.4319,374.9201,541.0755)" fill="#243355"/>
<use data-text="c" xlink:href="#font_1_8" transform="matrix(37.0232,0,0,-34.4319,393.69087,541.0755)" fill="#243355"/>
<use data-text="a" xlink:href="#font_1_7" transform="matrix(37.0232,0,0,-34.4319,411.20283,541.0755)" fill="#243355"/>
<use data-text="s" xlink:href="#font_1_18" transform="matrix(37.0232,0,0,-34.4319,429.97358,541.0755)" fill="#243355"/>
<g clip-path="url(#clip_2)">
<path transform="matrix(1,0,0,-1,256.2607,528.8871)" stroke-width="1" stroke-linecap="butt" stroke-miterlimit="10" stroke-linejoin="miter" fill="none" stroke="#243355" d="M0 0H-8.219V-2.41H-3.147V-9.331C-3.887-9.675-5.332-9.95-7.441-9.95-13.254-9.95-17.068-6.473-17.068-.585-17.068 5.234-13.106 8.746-7.034 8.746-4.517 8.746-2.851 8.299-1.518 7.748L-.74 10.192C-1.814 10.674-4.073 11.26-6.96 11.26-15.328 11.26-20.437 6.198-20.474-.723-20.474-4.338-19.141-7.437-16.994-9.365-14.55-11.534-11.44-12.43-7.664-12.43-4.294-12.43-1.444-11.638 0-11.155Z"/>
<path transform="matrix(1,0,0,-1,261.999,541.0755)" stroke-width="1" stroke-linecap="butt" stroke-miterlimit="10" stroke-linejoin="miter" fill="none" stroke="#243355" d="M0 0H3.221V8.884C3.221 9.4 3.295 9.882 3.369 10.295 3.813 12.567 5.442 14.186 7.738 14.186 8.182 14.186 8.516 14.151 8.849 14.083V16.94C8.552 17.01 8.293 17.044 7.923 17.044 5.739 17.044 3.776 15.632 2.962 13.394H2.814L2.703 16.665H-.148C-.037 15.115 0 13.429 0 11.466Z"/>
<path transform="matrix(1,0,0,-1,287.731,541.0755)" stroke-width="1" stroke-linecap="butt" stroke-miterlimit="10" stroke-linejoin="miter" fill="none" stroke="#243355" d="M0 0C-.222 1.137-.296 2.548-.296 3.994V10.227C-.296 13.566-1.629 17.044-7.108 17.044-9.367 17.044-11.514 16.458-12.995 15.563L-12.255 13.566C-10.996 14.323-9.256 14.806-7.59 14.806-3.925 14.806-3.518 12.326-3.518 10.949V10.605C-10.441 10.64-14.291 8.436-14.291 4.407-14.291 1.997-12.44-.379-8.812-.379-6.257-.379-4.332 .792-3.332 2.101H-3.221L-2.962 0ZM-3.443 5.612C-3.443 5.303-3.518 4.958-3.628 4.648-4.147 3.236-5.627 1.859-7.96 1.859-9.626 1.859-11.033 2.789-11.033 4.752-11.033 7.988-6.998 8.573-3.443 8.505Z"/>
<path transform="matrix(1,0,0,-1,293.6172,541.0755)" stroke-width="1" stroke-linecap="butt" stroke-miterlimit="10" stroke-linejoin="miter" fill="none" stroke="#243355" d="M0 0H3.258V10.02C3.258 10.536 3.332 11.053 3.48 11.432 4.036 13.118 5.702 14.53 7.849 14.53 10.922 14.53 11.995 12.292 11.995 9.606V0H15.254V9.951C15.254 15.667 11.403 17.044 8.923 17.044 5.961 17.044 3.888 15.494 2.999 13.91H2.925L2.74 16.665H-.148C-.037 15.288 0 13.876 0 12.154Z"/>
<path transform="matrix(1,0,0,-1,340.7471,537.9418)" stroke-width="1" stroke-linecap="butt" stroke-miterlimit="10" stroke-linejoin="miter" fill="none" stroke="#243355" d="M0 0C-1.296-.586-3.295-.965-5.257-.965-11.329-.965-14.846 2.686-14.846 8.366-14.846 14.461-10.959 17.938-5.108 17.938-3.035 17.938-1.296 17.525-.073 16.975L.704 19.419C-.147 19.832-2.11 20.452-5.22 20.452-12.958 20.452-18.252 15.528-18.252 8.263-18.252 .653-12.958-3.479-5.924-3.479-2.888-3.479-.518-2.927 .667-2.376Z"/>
<path transform="matrix(1,0,0,-1,358.8887,541.0755)" stroke-width="1" stroke-linecap="butt" stroke-miterlimit="10" stroke-linejoin="miter" fill="none" stroke="#243355" d="M0 0C-.223 1.137-.296 2.548-.296 3.994V10.227C-.296 13.566-1.629 17.044-7.108 17.044-9.367 17.044-11.515 16.458-12.995 15.563L-12.255 13.566C-10.996 14.323-9.256 14.806-7.59 14.806-3.925 14.806-3.518 12.326-3.518 10.949V10.605C-10.44 10.64-14.291 8.436-14.291 4.407-14.291 1.997-12.439-.379-8.812-.379-6.257-.379-4.332 .792-3.332 2.101H-3.221L-2.962 0ZM-3.443 5.612C-3.443 5.303-3.518 4.958-3.628 4.648-4.146 3.236-5.628 1.859-7.96 1.859-9.626 1.859-11.033 2.789-11.033 4.752-11.033 7.988-6.997 8.573-3.443 8.505Z"/>
<path transform="matrix(1,0,0,-1,364.7754,541.0755)" stroke-width="1" stroke-linecap="butt" stroke-miterlimit="10" stroke-linejoin="miter" fill="none" stroke="#243355" d="M0 0H3.221V8.884C3.221 9.4 3.295 9.882 3.369 10.295 3.813 12.567 5.442 14.186 7.737 14.186 8.182 14.186 8.515 14.151 8.848 14.083V16.94C8.552 17.01 8.293 17.044 7.923 17.044 5.738 17.044 3.776 15.632 2.962 13.394H2.813L2.702 16.665H-.148C-.037 15.115 0 13.429 0 11.466Z"/>
<path transform="matrix(1,0,0,-1,390.5059,541.0755)" stroke-width="1" stroke-linecap="butt" stroke-miterlimit="10" stroke-linejoin="miter" fill="none" stroke="#243355" d="M0 0C-.223 1.137-.296 2.548-.296 3.994V10.227C-.296 13.566-1.629 17.044-7.108 17.044-9.367 17.044-11.515 16.458-12.995 15.563L-12.255 13.566C-10.996 14.323-9.256 14.806-7.59 14.806-3.925 14.806-3.518 12.326-3.518 10.949V10.605C-10.44 10.64-14.291 8.436-14.291 4.407-14.291 1.997-12.439-.379-8.812-.379-6.257-.379-4.332 .792-3.332 2.101H-3.221L-2.962 0ZM-3.443 5.612C-3.443 5.303-3.518 4.958-3.628 4.648-4.146 3.236-5.628 1.859-7.96 1.859-9.626 1.859-11.033 2.789-11.033 4.752-11.033 7.988-6.997 8.573-3.443 8.505Z"/>
<path transform="matrix(1,0,0,-1,408.6104,538.183)" stroke-width="1" stroke-linecap="butt" stroke-miterlimit="10" stroke-linejoin="miter" fill="none" stroke="#243355" d="M0 0C-.925-.379-2.146-.827-3.998-.827-7.553-.827-10.218 1.549-10.218 5.405-10.218 8.883-7.996 11.706-3.887 11.706-2.11 11.706-.888 11.328-.11 10.915L.63 13.256C-.259 13.669-1.962 14.117-3.887 14.117-9.736 14.117-13.513 10.398-13.513 5.268-13.513 .172-9.996-3.237-4.591-3.237-2.184-3.237-.296-2.686 .556-2.272Z"/>
<path transform="matrix(1,0,0,-1,426.7891,541.0755)" stroke-width="1" stroke-linecap="butt" stroke-miterlimit="10" stroke-linejoin="miter" fill="none" stroke="#243355" d="M0 0C-.223 1.137-.296 2.548-.296 3.994V10.227C-.296 13.566-1.629 17.044-7.108 17.044-9.367 17.044-11.515 16.458-12.995 15.563L-12.255 13.566C-10.996 14.323-9.256 14.806-7.59 14.806-3.925 14.806-3.518 12.326-3.518 10.949V10.605C-10.44 10.64-14.291 8.436-14.291 4.407-14.291 1.997-12.439-.379-8.812-.379-6.257-.379-4.332 .792-3.332 2.101H-3.221L-2.962 0ZM-3.443 5.612C-3.443 5.303-3.518 4.958-3.628 4.648-4.146 3.236-5.628 1.859-7.96 1.859-9.626 1.859-11.033 2.789-11.033 4.752-11.033 7.988-6.997 8.573-3.443 8.505Z"/>
<path transform="matrix(1,0,0,-1,431.417,540.28359)" stroke-width="1" stroke-linecap="butt" stroke-miterlimit="10" stroke-linejoin="miter" fill="none" stroke="#243355" d="M0 0C1.259-.688 3.072-1.137 5.035-1.137 9.292-1.137 11.736 .93 11.736 3.856 11.736 6.335 10.144 7.781 7.034 8.884 4.701 9.71 3.628 10.329 3.628 11.707 3.628 12.946 4.701 13.979 6.627 13.979 8.293 13.979 9.589 13.429 10.292 13.016L11.106 15.219C10.106 15.77 8.515 16.252 6.701 16.252 2.851 16.252 .518 14.048 .518 11.362 .518 9.365 2.036 7.713 5.257 6.646 7.663 5.819 8.589 5.027 8.589 3.581 8.589 2.203 7.479 1.102 5.108 1.102 3.479 1.102 1.776 1.722 .814 2.307Z"/>
</g>
<use data-text="u" xlink:href="#font_3_5" transform="matrix(55.3736,0,0,-55.3736,24.1641,461.3734)" fill="#1f3663"/>
<use data-text="n" xlink:href="#font_3_4" transform="matrix(55.3736,0,0,-55.3736,120.62491,460.87507)" fill="#1f3663"/>
<use data-text="e" xlink:href="#font_3_3" transform="matrix(55.3736,0,0,-55.3736,228.0497,460.54283)" fill="#1f3663"/>
<use data-text="x" xlink:href="#font_3_6" transform="matrix(55.3736,0,0,-55.3736,311.5531,461.76106)" fill="#1f3663"/>
<use data-text="c" xlink:href="#font_3_2" transform="matrix(55.3736,0,0,-55.3736,412.60993,460.9858)" fill="#1f3663"/>
<use data-text="a" xlink:href="#font_3_1" transform="matrix(55.3736,0,0,-55.3736,523.5786,461.15193)" fill="#1f3663"/>
<path transform="matrix(1,0,0,-1,37.168,382.73854)" d="M0 0V44.88H22.665V22.511H33.834V56.248H45.167V67.637H56.499V56.248 7.979 0H68.069V56.248H90.734V10.877H101.591V44.88H113.334V33.517H124.635V0H135.871V44.88H158.536V22.379H169.86V56.383H180.692V67.772H192.436V56.383H203.669V0H214.709V45.016H226.272V56.248H248.937V11.151H260.481V0H271.741V7.979 11.389 67.637H294.406V11.389H298.295V11.151H305.744V56.248H316.609V67.772H328.353V56.248H328.642V0H339.623V22.369H362.52V67.637H373.636V78.674H385.38V67.637H396.496V11.389H400.945V11.151H407.424V44.908H430.321V0H441.506V7.979 18.745 20.162 67.637 78.674H453.25V67.637H464.403V11.389H475.34V56.248H498.237V0H509.441V34.112H520.516V56.383H531.848V89.907H509.183V101.141H475.249V112.398H419.311V101.141H384.969V112.641H362.304V123.875H339.738V157.79H328.374V146.527H317.407V123.875H283.073V112.641H260.409V123.875H215.002V112.641H192.937V101.141H181.604 170.271 169.642V90.102H124.349V101.141H79.381V90.102H33.998V78.674H11.333V90.102H-10.908V0Z" fill="#1e3661"/>
</g>
</svg>
